<?xml version="1.0" encoding="UTF-8" standalone="no"?>
<svg
   xmlns:dc="http://purl.org/dc/elements/1.1/"
   xmlns:cc="http://creativecommons.org/ns#"
   xmlns:rdf="http://www.w3.org/1999/02/22-rdf-syntax-ns#"
   xmlns:svg="http://www.w3.org/2000/svg"
   xmlns="http://www.w3.org/2000/svg"
   version="1.1"
   id="svg6491"
   viewBox="0 0 2079.9427 613.20671"
   height="173.06056mm"
   width="587.00604mm">
  <defs
     id="defs6493">
    <clipPath
       id="clipPath20"
       clipPathUnits="userSpaceOnUse">
      <path
         style="clip-rule:evenodd"
         id="path18"
         d="m 5147.77,656.586 c -80.29,0 -145.37,10.535 -195.24,31.602 l 0,170.648 c 58.32,-16.852 115.79,-25.281 172.42,-25.281 65.93,0 114.31,17.91 145.16,53.722 30.85,35.817 46.27,90.383 46.27,163.703 l 0,1612.95 210.45,0 0,-1597.79 c 0,-273.035 -126.35,-409.554 -379.06,-409.554 z m 150.86,2382.774 c 0,48.04 11.83,83.22 35.5,105.55 23.67,22.34 53.25,33.5 88.75,33.5 33.8,0 62.96,-11.37 87.47,-34.12 24.51,-22.76 36.77,-57.73 36.77,-104.93 0,-47.19 -12.26,-82.37 -36.77,-105.54 -24.51,-23.18 -53.67,-34.77 -87.47,-34.77 -35.5,0 -65.08,11.59 -88.75,34.77 -23.67,23.17 -35.5,58.35 -35.5,105.54 z M 6560.07,1253.23 c -205.38,0 -367.45,62.36 -486.19,187.08 -118.75,124.73 -178.13,297.9 -178.13,519.54 0,223.32 55.15,400.71 165.45,532.17 110.3,131.46 258.41,197.19 444.35,197.19 174.11,0 311.87,-57.09 413.29,-171.28 101.43,-114.18 152.14,-264.82 152.14,-451.9 l 0,-132.73 -957.17,0 c 4.23,-162.64 45.43,-286.1 123.61,-370.37 78.18,-84.27 188.26,-126.41 330.25,-126.41 149.6,0 297.51,31.18 443.72,93.54 l 0,-187.08 c -74.37,-32.03 -144.73,-54.99 -211.08,-68.89 -66.35,-13.91 -146.43,-20.86 -240.24,-20.86 z m -57.05,1260.28 c -111.57,0 -200.52,-36.24 -266.87,-108.71 -66.35,-72.48 -105.44,-172.76 -117.27,-300.85 l 726.44,0 c 0,132.31 -29.59,233.64 -88.75,304.01 -59.16,70.37 -143.68,105.55 -253.55,105.55 z m 1375.53,-1087.1 c 37.19,0 73.11,2.73 107.76,8.21 34.65,5.48 62.12,11.17 82.4,17.07 l 0,-160.54 c -22.82,-10.95 -56.41,-20.01 -100.78,-27.18 -44.38,-7.16 -84.31,-10.74 -119.81,-10.74 -268.77,0 -403.15,141.15 -403.15,423.47 l 0,824.17 -199.04,0 0,101.13 199.04,87.21 88.74,295.8 121.71,0 0,-321.08 403.15,0 0,-163.06 -403.15,0 0,-815.33 c 0,-83.43 19.86,-147.47 59.59,-192.14 39.72,-44.66 94.23,-66.99 163.54,-66.99 z m 1101.69,1262.8 c 61.7,0 117.06,-5.05 166.08,-15.16 l -29.16,-194.67 c -57.47,12.64 -108.18,18.96 -152.13,18.96 -112.41,0 -208.55,-45.5 -288.42,-136.52 -79.87,-91.01 -119.81,-204.36 -119.81,-340.03 l 0,-743.28 -210.44,0 0,1385.42 173.68,0 24.09,-256.6 10.14,0 c 51.56,90.17 113.68,159.69 186.36,208.57 72.69,48.88 152.56,73.31 239.61,73.31 z m 1228.46,-1410.7 -41.8,197.2 -10.2,0 c -69.3,-86.8 -138.4,-145.59 -207.25,-176.34 -68.88,-30.76 -154.88,-46.14 -257.99,-46.14 -137.76,0 -245.73,35.39 -323.91,106.18 -78.18,70.79 -117.27,171.49 -117.27,302.11 0,279.79 224.39,426.42 673.18,439.9 l 235.84,7.59 0,85.95 c 0,108.72 -23.5,188.98 -70.4,240.81 -46.9,51.83 -121.91,77.74 -225.02,77.74 -115.79,0 -246.79,-35.39 -393.01,-106.18 l -64.66,160.54 c 68.46,37.08 143.47,66.15 225.03,87.22 81.56,21.07 163.33,31.6 245.31,31.6 165.65,0 288.45,-36.66 368.25,-109.98 79.9,-73.31 119.8,-190.87 119.8,-352.67 l 0,-945.53 z m -475.4,147.9 c 131,0 233.9,35.81 308.7,107.44 74.8,71.63 112.2,171.92 112.2,300.85 l 0,125.15 -210.45,-8.85 c -167.35,-5.9 -288,-31.82 -361.95,-77.74 -73.96,-45.93 -110.93,-117.35 -110.93,-214.26 0,-75.85 23.03,-133.57 69.09,-173.18 46.06,-39.61 110.51,-59.41 193.34,-59.41 z m 2010.7,37.92 -11.4,0 c -97.2,-140.74 -242.6,-211.1 -436.1,-211.1 -181.8,0 -323.1,61.94 -424.1,185.82 -101,123.88 -151.5,300 -151.5,528.38 0,228.38 50.7,405.77 152.1,532.18 101.4,126.4 242.6,189.6 423.5,189.6 188.4,0 333,-68.25 433.5,-204.77 l 16.5,0 -8.9,99.86 -5,97.33 0,563.78 210.4,0 0,-1966.9 -171.1,0 z m -420.9,-35.4 c 143.7,0 247.8,38.98 312.5,116.93 64.6,77.95 97,203.73 97,377.33 l 0,44.24 c 0,196.36 -32.8,336.45 -98.3,420.3 -65.5,83.86 -170.1,125.78 -313.8,125.78 -123.3,0 -217.8,-47.82 -283.3,-143.47 -65.5,-95.65 -98.3,-230.7 -98.3,-405.14 0,-176.97 32.6,-310.54 97.7,-400.71 65,-90.17 160.6,-135.26 286.5,-135.26 z m 1920.7,-150.42 -41.9,197.2 -10.1,0 c -69.3,-86.8 -138.4,-145.59 -207.3,-176.34 -68.9,-30.76 -154.9,-46.14 -258,-46.14 -137.8,0 -245.7,35.39 -323.9,106.18 -78.2,70.79 -117.3,171.49 -117.3,302.11 0,279.79 224.4,426.42 673.2,439.9 l 235.8,7.59 0,85.95 c 0,108.72 -23.4,188.98 -70.3,240.81 -47,51.83 -122,77.74 -225.1,77.74 -115.8,0 -246.8,-35.39 -393,-106.18 l -64.6,160.54 c 68.4,37.08 143.4,66.15 225,87.22 81.5,21.07 163.3,31.6 245.3,31.6 165.7,0 288.4,-36.66 368.3,-109.98 79.9,-73.31 119.8,-190.87 119.8,-352.67 l 0,-945.53 z m -475.5,147.9 c 131,0 233.9,35.81 308.7,107.44 74.8,71.63 112.2,171.92 112.2,300.85 l 0,125.15 -210.4,-8.85 c -167.4,-5.9 -288,-31.82 -362,-77.74 -73.9,-45.93 -110.9,-117.35 -110.9,-214.26 0,-75.85 23,-133.57 69.1,-173.18 46.1,-39.61 110.5,-59.41 193.3,-59.41 z m 1698.9,1262.8 c 61.7,0 117,-5.05 166,-15.16 l -29.1,-194.67 c -57.5,12.64 -108.2,18.96 -152.2,18.96 -112.4,0 -208.5,-45.5 -288.4,-136.52 -79.8,-91.01 -119.8,-204.36 -119.8,-340.03 l 0,-743.28 -210.4,0 0,1385.42 173.7,0 24,-256.6 10.2,0 c 51.5,90.17 113.7,159.69 186.3,208.57 72.7,48.88 152.6,73.31 239.7,73.31 z" />
    </clipPath>
    <clipPath
       id="clipPath26"
       clipPathUnits="userSpaceOnUse">
      <path
         id="path24"
         d="m 0,0 14670,0 0,4314.71 -14670,0 z" />
    </clipPath>
    <clipPath
       id="clipPath36"
       clipPathUnits="userSpaceOnUse">
      <path
         style="clip-rule:evenodd"
         id="path34"
         d="m 1387.35,3868.43 c 6.75,0 13.35,3.25 17.44,9.21 10.59,15.52 21.54,30.6 32.85,45.27 7.13,9.23 5.4,22.53 -3.83,29.66 -9.22,7.13 -22.47,5.46 -29.6,-3.86 -11.83,-15.31 -23.32,-31.13 -34.31,-47.26 -6.55,-9.64 -4.09,-22.85 5.55,-29.34 3.66,-2.51 7.81,-3.68 11.9,-3.68" />
    </clipPath>
    <clipPath
       id="clipPath42"
       clipPathUnits="userSpaceOnUse">
      <path
         id="path40"
         d="m 0,0 14670,0 0,4314.71 -14670,0 z" />
    </clipPath>
    <clipPath
       id="clipPath52"
       clipPathUnits="userSpaceOnUse">
      <path
         style="clip-rule:evenodd"
         id="path50"
         d="m 1242.9,3557.25 c 1.78,-0.41 3.51,-0.62 5.23,-0.62 9.44,0 18.03,6.28 20.43,15.82 4.71,18.32 9.85,36.26 15.35,53.97 3.5,11.1 -2.67,22.94 -13.77,26.39 -11.11,3.57 -22.94,-2.63 -26.45,-13.73 -5.82,-18.44 -11.17,-37.09 -15.99,-56.17 -2.87,-11.31 3.94,-22.73 15.2,-25.66" />
    </clipPath>
    <clipPath
       id="clipPath58"
       clipPathUnits="userSpaceOnUse">
      <path
         id="path56"
         d="m 0,0 14670,0 0,4314.71 -14670,0 z" />
    </clipPath>
    <clipPath
       id="clipPath68"
       clipPathUnits="userSpaceOnUse">
      <path
         style="clip-rule:evenodd"
         id="path66"
         d="m 1295.61,3720.38 c 2.78,-1.26 5.73,-1.87 8.59,-1.87 8.07,0 15.76,4.7 19.27,12.57 7.65,17.18 15.72,33.95 24.2,50.4 5.35,10.38 1.31,23.15 -9.06,28.5 -10.26,5.34 -23.06,1.37 -28.44,-9.12 -8.91,-17.18 -17.29,-34.68 -25.25,-52.6 -4.76,-10.69 0.06,-23.17 10.69,-27.88" />
    </clipPath>
    <clipPath
       id="clipPath74"
       clipPathUnits="userSpaceOnUse">
      <path
         id="path72"
         d="m 0,0 14670,0 0,4314.71 -14670,0 z" />
    </clipPath>
    <clipPath
       id="clipPath84"
       clipPathUnits="userSpaceOnUse">
      <path
         style="clip-rule:evenodd"
         id="path82"
         d="m 1496.27,4000.67 c 5.45,0 10.84,2.1 14.98,6.28 13.16,13.21 26.68,26.1 40.6,38.46 8.7,7.75 9.47,21.07 1.72,29.75 -7.74,8.6 -21.06,9.44 -29.8,1.79 -14.56,-13 -28.71,-26.41 -42.49,-40.24 -8.22,-8.28 -8.18,-21.69 0.11,-29.87 4.13,-4.07 9.47,-6.17 14.88,-6.17" />
    </clipPath>
    <clipPath
       id="clipPath90"
       clipPathUnits="userSpaceOnUse">
      <path
         id="path88"
         d="m 0,0 14670,0 0,4314.71 -14670,0 z" />
    </clipPath>
    <clipPath
       id="clipPath100"
       clipPathUnits="userSpaceOnUse">
      <path
         style="clip-rule:evenodd"
         id="path98"
         d="m 1216.5,3387.81 c 0.68,0 1.37,-0.11 2.05,-0.11 10.75,0 19.96,8.18 21.01,19.08 1.84,18.85 4.18,37.41 6.92,55.74 1.67,11.51 -6.28,22.21 -17.8,23.99 -11.22,1.69 -22.22,-6.29 -24,-17.81 -2.83,-18.96 -5.19,-38.25 -7.13,-57.83 -1.16,-11.52 7.32,-21.89 18.95,-23.06" />
    </clipPath>
    <clipPath
       id="clipPath106"
       clipPathUnits="userSpaceOnUse">
      <path
         id="path104"
         d="m 0,0 14670,0 0,4314.71 -14670,0 z" />
    </clipPath>
    <clipPath
       id="clipPath116"
       clipPathUnits="userSpaceOnUse">
      <path
         style="clip-rule:evenodd"
         id="path114"
         d="m 2844.12,3330.41 c -27.55,50.29 -43.28,107.92 -43.28,169.21 0,60.99 15.61,118.3 42.96,168.37 l -667.01,0 c 27.44,-50.19 43.11,-107.72 43.11,-168.8 0,-61.08 -15.67,-118.62 -43.11,-168.8 l 667.33,0 0,0.02" />
    </clipPath>
    <clipPath
       id="clipPath122"
       clipPathUnits="userSpaceOnUse">
      <path
         id="path120"
         d="m 0,0 14670,0 0,4314.71 -14670,0 z" />
    </clipPath>
    <clipPath
       id="clipPath132"
       clipPathUnits="userSpaceOnUse">
      <path
         style="clip-rule:evenodd"
         id="path130"
         d="m 1126.03,377.535 c 26.61,71.363 88.49,122.801 161.14,138.84 -140.66,107.926 -145.95,270.852 -145.95,292.539 0,76.164 20.96,139.777 64.01,194.466 57.68,73.23 45.11,179.37 -28.14,237 -30.95,24.41 -67.78,36.26 -104.36,36.26 -49.98,0 -99.39,-22 -132.707,-64.32 C 849.492,1097.38 803.605,961.691 803.605,808.914 803.605,772.352 811.41,526.32 992.777,328.816 487.168,426.895 162.516,700.895 69.2031,1130.27 -91.1172,1868.12 494.07,2915.48 1594.19,3377.55 c 46.64,-104.36 151.2,-177.5 272.95,-177.5 165.03,0 299.09,134.22 299.09,299.14 0,67.27 -22.48,129.08 -60,179.06 174.09,121.13 349.7,175.29 517.36,157.58 112.27,-11.84 219.56,-57.52 314.39,-129.4 -51.61,-53.75 -83.5,-126.46 -83.5,-206.83 0,-165.44 133.85,-299.55 299.2,-299.55 76.33,0 145.79,29.02 198.66,76.16 160.26,-204.53 253.87,-470.66 268.13,-774.62 0.53,-11.31 9.85,-20.11 21.07,-20.11 l 0.99,0 c 11.63,0.53 20.64,10.49 20.08,22.1 -14.53,309.93 -114.48,589.16 -281.23,802.18 44.37,52.28 71.3,119.87 71.3,193.84 0,165.03 -134.02,298.73 -298.98,298.73 -44.02,0 -85.66,-9.64 -123.27,-26.71 3.88,6.6 4.14,14.99 -0.27,21.89 -10.58,16.45 -21.31,32.58 -32.27,48.3 -6.66,9.53 -19.75,11.73 -29.39,5.14 -9.53,-6.6 -11.89,-19.81 -5.2,-29.34 10.64,-15.19 21.07,-30.91 31.33,-46.93 3.51,-5.46 9.32,-8.27 15.31,-9.01 -14.09,-7.74 -27.35,-16.77 -39.98,-26.51 -102.46,79.43 -219.3,129.82 -341.95,142.71 -179.28,18.76 -365.68,-38.87 -549.19,-167.43 -54.15,54.27 -129.02,87.79 -211.64,87.79 -165.12,0 -299.03,-133.81 -299.03,-299.02 0,-28.41 4.24,-55.85 11.69,-81.94 -121.39,-50.92 -236.6,-108.87 -345.35,-172.78 -0.47,13.94 -0.78,27.88 -0.78,41.49 l 0.05,8.28 c 0.21,11.63 -9.06,21.27 -20.74,21.48 -12.63,1.58 -21.22,-9.12 -21.48,-20.75 l -0.06,-9.01 c 0,-16.24 0.32,-32.69 0.88,-49.24 0.21,-5.23 2.4,-9.85 5.72,-13.41 C 326.68,2694.18 -116.328,1785.45 28.0078,1121.26 129.008,656.152 488.52,366.863 1046.67,276.742 c 25.25,-22.004 52.29,-43.277 83.09,-62.863 -22.06,52.488 -23.79,110.211 -3.73,163.656" />
    </clipPath>
    <clipPath
       id="clipPath138"
       clipPathUnits="userSpaceOnUse">
      <path
         id="path136"
         d="m 0,0 14670,0 0,4314.71 -14670,0 z" />
    </clipPath>
    <clipPath
       id="clipPath148"
       clipPathUnits="userSpaceOnUse">
      <path
         style="clip-rule:evenodd"
         id="path146"
         d="m 1627.81,4110.58 c 4.12,0 8.33,1.26 11.95,3.78 15.4,10.57 31.12,20.63 47.04,30.18 10,5.96 13.31,18.85 7.34,28.91 -5.91,10.05 -19.06,13.3 -28.91,7.33 -16.77,-9.94 -33.22,-20.54 -49.35,-31.65 -9.65,-6.6 -12.05,-19.81 -5.44,-29.34 4.07,-5.96 10.67,-9.21 17.37,-9.21" />
    </clipPath>
    <clipPath
       id="clipPath154"
       clipPathUnits="userSpaceOnUse">
      <path
         id="path152"
         d="m 0,0 14670,0 0,4314.71 -14670,0 z" />
    </clipPath>
    <clipPath
       id="clipPath164"
       clipPathUnits="userSpaceOnUse">
      <path
         style="clip-rule:evenodd"
         id="path162"
         d="m 2777.28,4027.38 c 3.98,-3.56 8.95,-5.34 13.94,-5.34 5.87,0 11.69,2.4 15.82,7.22 7.71,8.7 6.86,22.01 -1.88,29.75 -14.73,13 -29.61,25.46 -44.74,37.41 -9.12,7.22 -22.37,5.65 -29.66,-3.45 -7.22,-9.12 -5.72,-22.42 3.45,-29.66 14.52,-11.52 28.87,-23.45 43.07,-35.93" />
    </clipPath>
    <clipPath
       id="clipPath170"
       clipPathUnits="userSpaceOnUse">
      <path
         id="path168"
         d="m 0,0 14670,0 0,4314.71 -14670,0 z" />
    </clipPath>
    <clipPath
       id="clipPath180"
       clipPathUnits="userSpaceOnUse">
      <path
         style="clip-rule:evenodd"
         id="path178"
         d="m 2747.53,1543.93 c 56.9,-17.29 103.57,-55.73 131.49,-108.24 2.77,-5.23 4.35,-10.79 6.69,-16.24 66.43,222.86 147.17,513.73 207.26,855.51 -38.98,-32.8 -89.05,-52.49 -142.97,-52.49 -14.41,0 -28.66,1.37 -42.49,4.09 -64.29,12.36 -116.1,51.96 -147.53,104.04 -56.89,-322.2 -133.58,-598.81 -197.29,-812.46 34.9,22.32 75.9,35.51 119.86,35.51 22.02,0.02 43.91,-3.22 64.98,-9.72" />
    </clipPath>
    <clipPath
       id="clipPath186"
       clipPathUnits="userSpaceOnUse">
      <path
         id="path184"
         d="m 0,0 14670,0 0,4314.71 -14670,0 z" />
    </clipPath>
    <clipPath
       id="clipPath196"
       clipPathUnits="userSpaceOnUse">
      <path
         style="clip-rule:evenodd"
         id="path194"
         d="m 2594.43,4156.26 c 16.19,-8.91 32.27,-18.33 48.25,-28.29 3.45,-2.21 7.34,-3.24 11.2,-3.24 7.02,0 13.89,3.45 17.88,9.85 6.23,9.85 3.24,22.94 -6.66,29.13 -16.6,10.38 -33.43,20.22 -50.35,29.55 -10.02,5.55 -23.05,1.99 -28.66,-8.28 -5.58,-10.28 -1.86,-23.05 8.34,-28.72" />
    </clipPath>
    <clipPath
       id="clipPath202"
       clipPathUnits="userSpaceOnUse">
      <path
         id="path200"
         d="m 0,0 14670,0 0,4314.71 -14670,0 z" />
    </clipPath>
    <clipPath
       id="clipPath212"
       clipPathUnits="userSpaceOnUse">
      <path
         style="clip-rule:evenodd"
         id="path210"
         d="m 2894.79,3906.78 c 4.19,-4.94 10.17,-7.45 16.14,-7.45 4.82,0 9.64,1.58 13.62,4.94 8.91,7.53 9.99,20.85 2.51,29.75 -12.63,14.99 -25.46,29.54 -38.55,43.58 -7.92,8.59 -21.33,9.11 -29.81,1.14 -8.54,-7.95 -9.06,-21.27 -1.11,-29.86 12.57,-13.49 24.99,-27.64 37.2,-42.1" />
    </clipPath>
    <clipPath
       id="clipPath218"
       clipPathUnits="userSpaceOnUse">
      <path
         id="path216"
         d="m 0,0 14670,0 0,4314.71 -14670,0 z" />
    </clipPath>
    <clipPath
       id="clipPath228"
       clipPathUnits="userSpaceOnUse">
      <path
         style="clip-rule:evenodd"
         id="path226"
         d="m 2441,4223.85 c 17.59,-5.87 35.1,-12.47 52.49,-19.49 2.62,-1.05 5.29,-1.46 7.91,-1.46 8.33,0 16.25,4.93 19.59,13.21 4.35,10.78 -0.88,23.16 -11.69,27.46 -18.23,7.34 -36.47,14.14 -54.8,20.34 -11.1,3.65 -23.05,-2.11 -26.77,-13.21 -3.71,-11.15 2.2,-23.08 13.27,-26.85" />
    </clipPath>
    <clipPath
       id="clipPath234"
       clipPathUnits="userSpaceOnUse">
      <path
         id="path232"
         d="m 0,0 14670,0 0,4314.71 -14670,0 z" />
    </clipPath>
    <clipPath
       id="clipPath244"
       clipPathUnits="userSpaceOnUse">
      <path
         style="clip-rule:evenodd"
         id="path242"
         d="m 2278.02,4262.82 c 18.38,-2.72 36.78,-5.87 55.11,-9.74 1.46,-0.2 2.89,-0.41 4.3,-0.41 9.79,0 18.59,6.92 20.69,16.86 2.36,11.43 -5.03,22.65 -16.4,24.93 -19.17,3.98 -38.4,7.34 -57.63,10.17 -11.98,1.69 -22.27,-6.4 -23.93,-17.92 -1.69,-11.53 6.34,-22.21 17.86,-23.89" />
    </clipPath>
    <clipPath
       id="clipPath250"
       clipPathUnits="userSpaceOnUse">
      <path
         id="path248"
         d="m 0,0 14670,0 0,4314.71 -14670,0 z" />
    </clipPath>
    <clipPath
       id="clipPath260"
       clipPathUnits="userSpaceOnUse">
      <path
         style="clip-rule:evenodd"
         id="path258"
         d="m 1940.21,4248.15 c 1.58,0 3.15,0.2 4.77,0.52 18.12,4.3 36.41,7.86 54.79,10.99 11.52,1.99 19.29,12.89 17.3,24.32 -1.95,11.52 -13.36,19.38 -24.31,17.27 -19.23,-3.24 -38.35,-7.01 -57.31,-11.42 -11.37,-2.63 -18.45,-13.94 -15.84,-25.34 2.31,-9.74 10.96,-16.34 20.6,-16.34" />
    </clipPath>
    <clipPath
       id="clipPath266"
       clipPathUnits="userSpaceOnUse">
      <path
         id="path264"
         d="m 0,0 14670,0 0,4314.71 -14670,0 z" />
    </clipPath>
    <clipPath
       id="clipPath276"
       clipPathUnits="userSpaceOnUse">
      <path
         style="clip-rule:evenodd"
         id="path274"
         d="m 1777.58,4194.08 c 2.89,0 5.76,0.53 8.54,1.78 17.01,7.55 34.31,14.47 51.81,20.96 10.96,3.98 16.55,16.13 12.52,27.03 -4.04,11.01 -16.08,16.55 -27.09,12.57 -18.33,-6.81 -36.47,-14.03 -54.33,-21.89 -10.64,-4.71 -15.46,-17.19 -10.79,-27.88 3.53,-7.84 11.22,-12.57 19.34,-12.57" />
    </clipPath>
    <clipPath
       id="clipPath282"
       clipPathUnits="userSpaceOnUse">
      <path
         id="path280"
         d="m 0,0 14670,0 0,4314.71 -14670,0 z" />
    </clipPath>
    <clipPath
       id="clipPath292"
       clipPathUnits="userSpaceOnUse">
      <path
         style="clip-rule:evenodd"
         id="path290"
         d="m 2109.95,4271.2 0.84,0 c 12.68,0.53 25.46,0.85 38.14,0.85 l 17.86,-0.1 c 11.89,0.53 21.27,9.12 21.48,20.75 0.21,11.63 -9.12,21.27 -20.75,21.48 l -18.7,0.09 c -13.3,0 -26.51,-0.31 -39.72,-0.84 -11.68,-0.41 -20.74,-10.26 -20.28,-21.89 0.49,-11.43 9.85,-20.34 21.13,-20.34" />
    </clipPath>
    <clipPath
       id="clipPath298"
       clipPathUnits="userSpaceOnUse">
      <path
         id="path296"
         d="m 0,0 14670,0 0,4314.71 -14670,0 z" />
    </clipPath>
    <clipPath
       id="clipPath308"
       clipPathUnits="userSpaceOnUse">
      <path
         style="clip-rule:evenodd"
         id="path306"
         d="m 1963.15,1187.78 c 3.04,0 6.14,0.74 9.06,2.1 10.53,5.03 14.99,17.6 10,28.08 l -23.99,50.09 c -5.08,10.59 -17.82,14.88 -28.18,9.85 -10.52,-5.02 -14.93,-17.7 -9.84,-28.17 l 23.87,-49.89 c 3.63,-7.55 11.22,-12.06 19.08,-12.06" />
    </clipPath>
    <clipPath
       id="clipPath314"
       clipPathUnits="userSpaceOnUse">
      <path
         id="path312"
         d="m 0,0 14670,0 0,4314.71 -14670,0 z" />
    </clipPath>
    <clipPath
       id="clipPath324"
       clipPathUnits="userSpaceOnUse">
      <path
         style="clip-rule:evenodd"
         id="path322"
         d="m 1272.35,2959.06 c -2.63,11.32 -13.36,18.65 -25.31,15.93 -11.36,-2.63 -18.44,-13.94 -15.87,-25.37 4.24,-18.55 8.86,-37.29 13.85,-56.25 2.51,-9.44 11.05,-15.73 20.43,-15.73 1.78,0 3.56,0.21 5.4,0.74 11.27,2.92 17.97,14.55 15.04,25.77 -4.89,18.44 -9.39,36.79 -13.54,54.91" />
    </clipPath>
    <clipPath
       id="clipPath330"
       clipPathUnits="userSpaceOnUse">
      <path
         id="path328"
         d="m 0,0 14670,0 0,4314.71 -14670,0 z" />
    </clipPath>
    <clipPath
       id="clipPath340"
       clipPathUnits="userSpaceOnUse">
      <path
         style="clip-rule:evenodd"
         id="path338"
         d="m 1902.17,1341.59 c 10.9,6.7 13.41,15.09 7.12,27.45 -6.28,12.47 -23.78,48.72 -23.78,48.72 -5.03,10.48 -17.65,14.87 -28.18,9.73 -10.49,-5.14 -14.88,-17.7 -9.74,-28.17 0,0 19.06,-39.08 23.79,-48.84 4.69,-9.62 19.89,-15.59 30.79,-8.89" />
    </clipPath>
    <clipPath
       id="clipPath346"
       clipPathUnits="userSpaceOnUse">
      <path
         id="path344"
         d="m 0,0 14670,0 0,4314.71 -14670,0 z" />
    </clipPath>
    <clipPath
       id="clipPath356"
       clipPathUnits="userSpaceOnUse">
      <path
         style="clip-rule:evenodd"
         id="path354"
         d="m 1219.9,3144.31 c -11.58,-1.36 -19.85,-11.83 -18.5,-23.35 2.2,-18.97 4.82,-38.14 7.86,-57.52 1.63,-10.37 10.58,-17.8 20.86,-17.8 1.05,0 2.14,0.09 3.25,0.2 11.52,1.78 19.38,12.57 17.59,24.11 -2.92,18.85 -5.46,37.5 -7.65,55.96 -1.41,11.48 -11.78,20.07 -23.41,18.4" />
    </clipPath>
    <clipPath
       id="clipPath362"
       clipPathUnits="userSpaceOnUse">
      <path
         id="path360"
         d="m 0,0 14670,0 0,4314.71 -14670,0 z" />
    </clipPath>
    <clipPath
       id="clipPath372"
       clipPathUnits="userSpaceOnUse">
      <path
         style="clip-rule:evenodd"
         id="path370"
         d="m 2052.32,1066.77 -23,50.61 c -4.93,10.69 -17.62,15.19 -27.97,10.37 -10.64,-4.82 -15.25,-17.39 -10.38,-27.97 l 22.91,-50.29 c 3.51,-7.87 11.16,-12.48 19.23,-12.48 2.89,0 5.87,0.62 8.65,1.88 10.62,4.82 15.38,17.29 10.56,27.88" />
    </clipPath>
    <clipPath
       id="clipPath378"
       clipPathUnits="userSpaceOnUse">
      <path
         id="path376"
         d="m 0,0 14670,0 0,4314.71 -14670,0 z" />
    </clipPath>
    <clipPath
       id="clipPath388"
       clipPathUnits="userSpaceOnUse">
      <path
         style="clip-rule:evenodd"
         id="path386"
         d="m 3260.57,3163.17 c -33.73,-10.79 -69.62,-16.78 -106.87,-16.78 -85.25,0 -163.52,30.49 -224.59,81.01 l -145.07,-750.42 c -17.71,-91.59 42.17,-180.11 133.69,-197.82 10.85,-2.1 21.64,-3.04 32.27,-3.04 79.2,0 149.95,56.05 165.55,136.74 l 145.02,750.31" />
    </clipPath>
    <clipPath
       id="clipPath394"
       clipPathUnits="userSpaceOnUse">
      <path
         id="path392"
         d="m 0,0 14670,0 0,4314.71 -14670,0 z" />
    </clipPath>
    <clipPath
       id="clipPath404"
       clipPathUnits="userSpaceOnUse">
      <path
         style="clip-rule:evenodd"
         id="path402"
         d="m 1826.73,1489.96 c 10.06,5.87 15.09,15.93 9.54,28.5 -5.56,12.57 -23.79,48.62 -23.79,48.62 -5.03,10.58 -17.66,14.88 -28.18,9.74 -10.49,-5.03 -14.88,-17.71 -9.76,-28.18 0,0 18.13,-37.2 23.79,-48.72 5.67,-11.63 18.35,-15.81 28.4,-9.96" />
    </clipPath>
    <clipPath
       id="clipPath410"
       clipPathUnits="userSpaceOnUse">
      <path
         id="path408"
         d="m 0,0 14670,0 0,4314.71 -14670,0 z" />
    </clipPath>
    <clipPath
       id="clipPath420"
       clipPathUnits="userSpaceOnUse">
      <path
         style="clip-rule:evenodd"
         id="path418"
         d="m 3657,2271.3 c 3.09,53.95 -1.15,109.7 -1.15,109.7 13.1,6.5 26.42,14.15 34.69,19.7 8.64,5.67 10.16,13 10.46,16.66 0.32,3.45 1.21,11.01 1.21,11.01 0,0 -50.35,-10.37 -61.55,-9.23 -11.22,0.85 -58.52,20.54 -58.52,20.54 0,0 -0.73,-7.54 -0.99,-11.01 -0.41,-3.45 -0.15,-11.22 7.22,-18.33 7.13,-7.01 18.76,-16.97 30.34,-25.88 0,0 -14.56,-53.86 -21.75,-107.51 l -129.81,77.85 c 0,0 -2.78,-11.95 -3.83,-22.1 -0.73,-8.7 4.97,-15.4 6.92,-17.3 72.24,-77.44 122.01,-112.95 122.01,-112.95 -4.14,-44.22 -3.35,-61.81 -3.88,-68.74 -1.14,-13.3 8.01,-40.33 21.48,-41.59 13.51,-1.25 27.65,23.47 28.97,36.77 0.73,6.81 4.88,24.11 9.06,68.22 0,0 55.53,25.77 140.98,88.11 2.19,1.67 9.06,7.22 9.84,15.92 1,10.17 0.53,22.42 0.53,22.42 L 3657,2271.3" />
    </clipPath>
    <clipPath
       id="clipPath426"
       clipPathUnits="userSpaceOnUse">
      <path
         id="path424"
         d="m 0,0 14670,0 0,4314.71 -14670,0 z" />
    </clipPath>
    <clipPath
       id="clipPath436"
       clipPathUnits="userSpaceOnUse">
      <path
         style="clip-rule:evenodd"
         id="path434"
         d="m 3604.66,2052.32 c -11.48,2.4 -22.54,-4.94 -24.99,-16.25 C 3466.51,1498.67 3113.4,909.914 2545.34,568.227 c 103.83,171.632 203.78,402.355 298.77,713.653 27.19,89.16 -23,183.58 -112.23,210.71 -16.45,5.03 -33.05,7.45 -49.35,7.45 -72.3,0 -139.14,-46.94 -161.35,-119.65 -109.91,-360.13 -216.9,-585.097 -321.73,-726.226 -4.67,6.285 -12.63,9.738 -21.05,8.18 -11.42,-2.305 -18.81,-13.41 -16.51,-24.836 1.79,-8.801 2.78,-16.977 4.2,-25.457 -10.26,-12.156 -20.54,-23.883 -30.74,-34.574 82.5,-64.645 135.85,-164.821 135.85,-277.454 0,-20.113 -2.09,-39.714 -5.34,-58.886 78.06,59.203 154.6,139.664 229.26,248.543 621.45,340.527 1005.81,967.94 1125.84,1537.73 2.4,11.38 -4.88,22.49 -16.3,24.91" />
    </clipPath>
    <clipPath
       id="clipPath442"
       clipPathUnits="userSpaceOnUse">
      <path
         id="path440"
         d="m 0,0 14670,0 0,4314.71 -14670,0 z" />
    </clipPath>
    <clipPath
       id="clipPath452"
       clipPathUnits="userSpaceOnUse">
      <path
         style="clip-rule:evenodd"
         id="path450"
         d="m 1918.5,598.824 c -165.29,0 -299.08,-133.793 -299.08,-298.82 0,-165.234 133.81,-299.554781 299.08,-299.554781 164.98,0 299.05,134.320781 299.05,299.554781 0,165.027 -134.05,298.82 -299.05,298.82" />
    </clipPath>
    <clipPath
       id="clipPath458"
       clipPathUnits="userSpaceOnUse">
      <path
         id="path456"
         d="m 0,0 14670,0 0,4314.71 -14670,0 z" />
    </clipPath>
    <clipPath
       id="clipPath468"
       clipPathUnits="userSpaceOnUse">
      <path
         style="clip-rule:evenodd"
         id="path466"
         d="m 1587.16,419.652 c -72.98,4.707 -138.06,17.391 -193.64,38.137 -19.49,7.336 -39.45,10.695 -59.09,10.695 -68.48,0 -132.81,-41.816 -158.16,-109.707 -32.7,-87.289 11.62,-184.613 98.95,-217.199 107.19,-40.125 230.99,-60.5546 367.73,-61.3983 -48.2,60.3473 -77.18,136.7383 -77.18,219.8243 0,42.113 7.82,82.242 21.39,119.648" />
    </clipPath>
    <clipPath
       id="clipPath474"
       clipPathUnits="userSpaceOnUse">
      <path
         id="path472"
         d="m 0,0 14670,0 0,4314.71 -14670,0 z" />
    </clipPath>
    <clipPath
       id="clipPath484"
       clipPathUnits="userSpaceOnUse">
      <path
         style="clip-rule:evenodd"
         id="path482"
         d="m 1745.17,1636.46 c 3.09,0 6.22,0.73 9.17,2.09 10.52,5.15 14.93,17.72 9.85,28.18 l -23.88,49.88 c -4.97,10.59 -17.65,15.09 -28.08,10.06 -10.59,-5.03 -15.03,-17.6 -10.06,-28.08 l 23.99,-50.18 c 3.66,-7.57 11.15,-11.95 19.01,-11.95" />
    </clipPath>
    <clipPath
       id="clipPath490"
       clipPathUnits="userSpaceOnUse">
      <path
         id="path488"
         d="m 0,0 14670,0 0,4314.71 -14670,0 z" />
    </clipPath>
    <clipPath
       id="clipPath500"
       clipPathUnits="userSpaceOnUse">
      <path
         style="clip-rule:evenodd"
         id="path498"
         d="m 1612.55,2379.84 c -97.49,41.29 -157.43,53.54 -157.43,53.54 -14.25,41.91 -22.09,57.73 -24.36,64.23 -4.45,12.69 -23.79,33.64 -36.72,29.25 -12.77,-4.29 -15.6,-32.7 -11.36,-45.36 2.04,-6.6 5.28,-23.99 19.52,-66.13 0,0 -40.29,-45.99 -92.99,-137.79 -1.31,-2.4 -5.29,-10.37 -2.51,-18.55 3.3,-9.53 8.74,-20.64 8.74,-20.64 L 1424,2344.01 c 19.23,-50.61 45.68,-99.65 45.68,-99.65 -9.17,-11.31 -18.29,-23.68 -23.62,-32.17 -5.55,-8.6 -3.97,-16.14 -2.83,-19.49 1.15,-3.36 3.4,-10.58 3.4,-10.58 0,0 41.85,29.95 52.45,33.52 10.58,3.77 61.81,5.03 61.81,5.03 0,0 -2.36,7.22 -3.56,10.48 -1.05,3.25 -4.39,10.26 -14,13.83 -9.38,3.45 -24.14,7.75 -38.3,11.31 0,0 -8.65,55 -23.89,106.87 l 150.31,-18.12 c 0,0 -2.37,12.05 -5.56,21.69 -2.85,8.31 -10.86,12.08 -13.34,13.11" />
    </clipPath>
    <clipPath
       id="clipPath506"
       clipPathUnits="userSpaceOnUse">
      <path
         id="path504"
         d="m 0,0 14670,0 0,4314.71 -14670,0 z" />
    </clipPath>
    <clipPath
       id="clipPath516"
       clipPathUnits="userSpaceOnUse">
      <path
         style="clip-rule:evenodd"
         id="path514"
         d="m 1337.05,1066.97 c 210.77,0 319.36,-260.158 371.12,-484.708 58.83,43.894 131.45,70.195 210.35,70.195 45.16,0 88.18,-8.797 127.89,-24.312 -75.34,349.324 -270.5,776.405 -709.34,776.405 -99.8,0 -190.34,-25.57 -268.19,-74.7 1.37,0 2.57,0.41 3.89,0.41 49.62,0 98.48,-16.97 137.52,-47.67 46.68,-36.77 76.28,-89.48 83.24,-148.57 2.93,-24.84 0.85,-49.45 -4.3,-73.24 14.6,3.79 30.11,6.19 47.82,6.19" />
    </clipPath>
    <clipPath
       id="clipPath522"
       clipPathUnits="userSpaceOnUse">
      <path
         id="path520"
         d="m 0,0 14670,0 0,4314.71 -14670,0 z" />
    </clipPath>
    <clipPath
       id="clipPath532"
       clipPathUnits="userSpaceOnUse">
      <path
         style="clip-rule:evenodd"
         id="path530"
         d="m 2096.8,964.711 c -4.51,10.695 -16.83,15.609 -27.66,11.312 -10.75,-4.5 -15.83,-16.863 -11.31,-27.668 7.28,-17.281 14.26,-34.257 20.96,-51.027 3.3,-8.18 11.22,-13.207 19.6,-13.207 2.63,0 5.29,0.414 7.86,1.465 10.84,4.387 16.08,16.656 11.73,27.441 -6.83,17 -13.91,34.184 -21.18,51.684" />
    </clipPath>
    <clipPath
       id="clipPath538"
       clipPathUnits="userSpaceOnUse">
      <path
         id="path536"
         d="m 0,0 14670,0 0,4314.71 -14670,0 z" />
    </clipPath>
    <clipPath
       id="clipPath548"
       clipPathUnits="userSpaceOnUse">
      <path
         style="clip-rule:evenodd"
         id="path546"
         d="m 2134.46,742.578 c 2.84,-9.004 11.17,-14.875 20.17,-14.875 2.1,0 4.19,0.32 6.29,0.938 11.1,3.453 17.33,15.308 13.88,26.507 -5.46,17.391 -11.28,35.098 -17.56,53.223 -3.86,11.106 -16.19,16.863 -26.86,13.094 -11.05,-3.883 -16.87,-15.93 -13.04,-26.942 6.17,-17.671 11.89,-34.964 17.12,-51.945" />
    </clipPath>
    <clipPath
       id="clipPath554"
       clipPathUnits="userSpaceOnUse">
      <path
         id="path552"
         d="m 0,0 14670,0 0,4314.71 -14670,0 z" />
    </clipPath>
    <clipPath
       id="clipPath564"
       clipPathUnits="userSpaceOnUse">
      <path
         style="clip-rule:evenodd"
         id="path562"
         d="m 1574.21,2029.05 c -10.69,-4.61 -15.57,-17.07 -10.9,-27.76 l 22.36,-50.91 c 3.45,-7.86 11.22,-12.57 19.29,-12.57 2.89,0 5.76,0.64 8.59,1.89 10.64,4.71 15.46,17.19 10.69,27.88 l -22.26,50.62 c -4.66,10.65 -16.98,15.47 -27.77,10.85" />
    </clipPath>
    <clipPath
       id="clipPath570"
       clipPathUnits="userSpaceOnUse">
      <path
         id="path568"
         d="m 0,0 14670,0 0,4314.71 -14670,0 z" />
    </clipPath>
    <clipPath
       id="clipPath580"
       clipPathUnits="userSpaceOnUse">
      <path
         style="clip-rule:evenodd"
         id="path578"
         d="m 1520.35,2157.82 c -10.78,-4.41 -15.98,-16.66 -11.57,-27.44 l 10.84,-26.42 c 3.36,-8.06 11.22,-13 19.49,-13 2.72,0 5.44,0.53 8.12,1.67 10.75,4.41 15.84,16.77 11.37,27.56 l -10.74,26.1 c -4.34,10.8 -16.66,15.83 -27.51,11.53" />
    </clipPath>
    <clipPath
       id="clipPath586"
       clipPathUnits="userSpaceOnUse">
      <path
         id="path584"
         d="m 0,0 14670,0 0,4314.71 -14670,0 z" />
    </clipPath>
    <clipPath
       id="clipPath596"
       clipPathUnits="userSpaceOnUse">
      <path
         style="clip-rule:evenodd"
         id="path594"
         d="m 1377.76,2636.57 c -4.5,10.69 -16.66,15.72 -27.67,11.22 -10.75,-4.51 -15.76,-16.87 -11.2,-27.68 l 11.31,-26.3 c 3.46,-7.95 11.22,-12.68 19.32,-12.68 2.84,0 5.73,0.53 8.45,1.78 10.69,4.62 15.55,17.07 10.9,27.77 l -11.11,25.89" />
    </clipPath>
    <clipPath
       id="clipPath602"
       clipPathUnits="userSpaceOnUse">
      <path
         id="path600"
         d="m 0,0 14670,0 0,4314.71 -14670,0 z" />
    </clipPath>
    <clipPath
       id="clipPath612"
       clipPathUnits="userSpaceOnUse">
      <path
         style="clip-rule:evenodd"
         id="path610"
         d="m 1318.03,2795.61 c -3.62,11.1 -15.51,17.3 -26.62,13.53 -11.11,-3.57 -17.13,-15.52 -13.53,-26.62 5.93,-18.13 12.25,-36.36 18.86,-54.69 3.09,-8.59 11.22,-13.94 19.85,-13.94 2.36,0 4.76,0.41 7.18,1.26 10.96,3.89 16.66,16.04 12.68,27.03 -6.47,17.92 -12.61,35.72 -18.42,53.43" />
    </clipPath>
    <clipPath
       id="clipPath618"
       clipPathUnits="userSpaceOnUse">
      <path
         id="path616"
         d="m 0,0 14670,0 0,4314.71 -14670,0 z" />
    </clipPath>
    <clipPath
       id="clipPath628"
       clipPathUnits="userSpaceOnUse">
      <path
         style="clip-rule:evenodd"
         id="path626"
         d="m 1654.79,1798.75 c 3.56,-7.66 11.21,-12.16 19.11,-12.16 2.98,0 6.02,0.64 8.97,1.99 10.52,4.93 15.08,17.5 10.17,28.08 l -23.21,50.09 c -4.94,10.69 -17.65,15.2 -27.97,10.37 -10.58,-4.82 -15.25,-17.39 -10.38,-27.97 l 23.31,-50.4" />
    </clipPath>
    <clipPath
       id="clipPath634"
       clipPathUnits="userSpaceOnUse">
      <path
         id="path632"
         d="m 0,0 14670,0 0,4314.71 -14670,0 z" />
    </clipPath>
  </defs>
  <metadata
     id="metadata6496">
    <rdf:RDF>
      <cc:Work
         rdf:about="">
        <dc:format>image/svg+xml</dc:format>
        <dc:type
           rdf:resource="http://purl.org/dc/dcmitype/StillImage" />
        <dc:title></dc:title>
      </cc:Work>
    </rdf:RDF>
  </metadata>
  <g
     transform="translate(-897.17147,-582.90171)"
     id="layer1">
    <g
       transform="matrix(1.3333333,0,0,-1.3333333,897.01466,1196.1723)"
       id="g10">
      <g
         transform="scale(0.106612,0.106612)"
         id="g12">
        <g
           id="g14">
          <g
             clip-path="url(#clipPath20)"
             id="g16">
            <g
               clip-path="url(#clipPath26)"
               id="g22">
              <path
                 id="path28"
                 style="fill:#ffffff;fill-opacity:1;fill-rule:nonzero;stroke:none"
                 d="m 4858.73,562.789 9868.3,0 0,2776.42 -9868.3,0 z" />
            </g>
          </g>
        </g>
        <g
           id="g30">
          <g
             clip-path="url(#clipPath36)"
             id="g32">
            <g
               clip-path="url(#clipPath42)"
               id="g38">
              <path
                 id="path44"
                 style="fill:#ffffff;fill-opacity:1;fill-rule:nonzero;stroke:none"
                 d="m 1272.44,3774.64 263.395,0 0,276.145 -263.395,0 z" />
            </g>
          </g>
        </g>
        <g
           id="g46">
          <g
             clip-path="url(#clipPath52)"
             id="g48">
            <g
               clip-path="url(#clipPath58)"
               id="g54">
              <path
                 id="path60"
                 style="fill:#ffffff;fill-opacity:1;fill-rule:nonzero;stroke:none"
                 d="m 1133.25,3462.83 245.438,0 0,284.785 -245.438,0 z" />
            </g>
          </g>
        </g>
        <g
           id="g62">
          <g
             clip-path="url(#clipPath68)"
             id="g64">
            <g
               clip-path="url(#clipPath74)"
               id="g70">
              <path
                 id="path76"
                 style="fill:#ffffff;fill-opacity:1;fill-rule:nonzero;stroke:none"
                 d="m 1189.28,3624.71 254.547,0 0,281.438 -254.547,0 z" />
            </g>
          </g>
        </g>
        <g
           id="g78">
          <g
             clip-path="url(#clipPath84)"
             id="g80">
            <g
               clip-path="url(#clipPath90)"
               id="g86">
              <path
                 id="path92"
                 style="fill:#ffffff;fill-opacity:1;fill-rule:nonzero;stroke:none"
                 d="m 1381.34,3906.87 271.371,0 0,269.113 -271.371,0 z" />
            </g>
          </g>
        </g>
        <g
           id="g94">
          <g
             clip-path="url(#clipPath100)"
             id="g96">
            <g
               clip-path="url(#clipPath106)"
               id="g102">
              <path
                 id="path108"
                 style="fill:#ffffff;fill-opacity:1;fill-rule:nonzero;stroke:none"
                 d="m 1103.65,3293.9 236.848,0 0,286.629 -236.848,0 z" />
            </g>
          </g>
        </g>
        <g
           id="g110">
          <g
             clip-path="url(#clipPath116)"
             id="g112">
            <g
               clip-path="url(#clipPath122)"
               id="g118">
              <path
                 id="path124"
                 style="fill:#ffffff;fill-opacity:1;fill-rule:nonzero;stroke:none"
                 d="m 2082.99,3236.59 854.934,0 0,525.191 -854.934,0 z" />
            </g>
          </g>
        </g>
        <g
           id="g126">
          <g
             clip-path="url(#clipPath132)"
             id="g128">
            <g
               clip-path="url(#clipPath138)"
               id="g134">
              <path
                 id="path140"
                 style="fill:#ffffff;fill-opacity:1;fill-rule:nonzero;stroke:none"
                 d="m 0,120.082 3756.43,0 0,3855.05 -3756.43,0 z" />
            </g>
          </g>
        </g>
        <g
           id="g142">
          <g
             clip-path="url(#clipPath148)"
             id="g144">
            <g
               clip-path="url(#clipPath154)"
               id="g150">
              <path
                 id="path156"
                 style="fill:#ffffff;fill-opacity:1;fill-rule:nonzero;stroke:none"
                 d="m 1512.91,4016.79 277.996,0 0,260.777 -277.996,0 z" />
            </g>
          </g>
        </g>
        <g
           id="g158">
          <g
             clip-path="url(#clipPath164)"
             id="g160">
            <g
               clip-path="url(#clipPath170)"
               id="g166">
              <path
                 id="path172"
                 style="fill:#ffffff;fill-opacity:1;fill-rule:nonzero;stroke:none"
                 d="m 2632.4,3928.24 273.707,0 0,266.52 -273.707,0 z" />
            </g>
          </g>
        </g>
        <g
           id="g174">
          <g
             clip-path="url(#clipPath180)"
             id="g176">
            <g
               clip-path="url(#clipPath186)"
               id="g182">
              <path
                 id="path188"
                 style="fill:#ffffff;fill-opacity:1;fill-rule:nonzero;stroke:none"
                 d="m 2468.89,1325.65 717.871,0 0,1098.75 -717.871,0 z" />
            </g>
          </g>
        </g>
        <g
           id="g190">
          <g
             clip-path="url(#clipPath196)"
             id="g192">
            <g
               clip-path="url(#clipPath202)"
               id="g198">
              <path
                 id="path204"
                 style="fill:#ffffff;fill-opacity:1;fill-rule:nonzero;stroke:none"
                 d="m 2489.7,4030.93 279.113,0 0,258.734 -279.113,0 z" />
            </g>
          </g>
        </g>
        <g
           id="g206">
          <g
             clip-path="url(#clipPath212)"
             id="g208">
            <g
               clip-path="url(#clipPath218)"
               id="g214">
              <path
                 id="path220"
                 style="fill:#ffffff;fill-opacity:1;fill-rule:nonzero;stroke:none"
                 d="m 2758.15,3805.53 267.676,0 0,272.664 -267.676,0 z" />
            </g>
          </g>
        </g>
        <g
           id="g222">
          <g
             clip-path="url(#clipPath228)"
             id="g224">
            <g
               clip-path="url(#clipPath234)"
               id="g230">
              <path
                 id="path236"
                 style="fill:#ffffff;fill-opacity:1;fill-rule:nonzero;stroke:none"
                 d="m 2332.83,4109.1 283.492,0 0,249.699 -283.492,0 z" />
            </g>
          </g>
        </g>
        <g
           id="g238">
          <g
             clip-path="url(#clipPath244)"
             id="g240">
            <g
               clip-path="url(#clipPath250)"
               id="g246">
              <path
                 id="path252"
                 style="fill:#ffffff;fill-opacity:1;fill-rule:nonzero;stroke:none"
                 d="m 2166.13,4158.87 286.223,0 0,239.781 -286.223,0 z" />
            </g>
          </g>
        </g>
        <g
           id="g254">
          <g
             clip-path="url(#clipPath260)"
             id="g256">
            <g
               clip-path="url(#clipPath266)"
               id="g262">
              <path
                 id="path268"
                 style="fill:#ffffff;fill-opacity:1;fill-rule:nonzero;stroke:none"
                 d="m 1825.27,4154.35 285.902,0 0,241.047 -285.902,0 z" />
            </g>
          </g>
        </g>
        <g
           id="g270">
          <g
             clip-path="url(#clipPath276)"
             id="g272">
            <g
               clip-path="url(#clipPath282)"
               id="g278">
              <path
                 id="path284"
                 style="fill:#ffffff;fill-opacity:1;fill-rule:nonzero;stroke:none"
                 d="m 1662.66,4100.29 282.895,0 0,251.219 -282.895,0 z" />
            </g>
          </g>
        </g>
        <g
           id="g286">
          <g
             clip-path="url(#clipPath292)"
             id="g288">
            <g
               clip-path="url(#clipPath298)"
               id="g294">
              <path
                 id="path300"
                 style="fill:#ffffff;fill-opacity:1;fill-rule:nonzero;stroke:none"
                 d="m 1995.01,4177.41 287.062,0 0,230.668 -287.062,0 z" />
            </g>
          </g>
        </g>
        <g
           id="g302">
          <g
             clip-path="url(#clipPath308)"
             id="g304">
            <g
               clip-path="url(#clipPath314)"
               id="g310">
              <path
                 id="path316"
                 style="fill:#ffffff;fill-opacity:1;fill-rule:nonzero;stroke:none"
                 d="m 1824.29,1093.98 253.77,0 0,279.812 -253.77,0 z" />
            </g>
          </g>
        </g>
        <g
           id="g318">
          <g
             clip-path="url(#clipPath324)"
             id="g320">
            <g
               clip-path="url(#clipPath330)"
               id="g326">
              <path
                 id="path332"
                 style="fill:#ffffff;fill-opacity:1;fill-rule:nonzero;stroke:none"
                 d="m 1136.85,2783.85 243.531,0 0,285.508 -243.531,0 z" />
            </g>
          </g>
        </g>
        <g
           id="g334">
          <g
             clip-path="url(#clipPath340)"
             id="g336">
            <g
               clip-path="url(#clipPath346)"
               id="g342">
              <path
                 id="path348"
                 style="fill:#ffffff;fill-opacity:1;fill-rule:nonzero;stroke:none"
                 d="m 1751.64,1244.94 254.836,0 0,278.5 -254.836,0 z" />
            </g>
          </g>
        </g>
        <g
           id="g350">
          <g
             clip-path="url(#clipPath356)"
             id="g352">
            <g
               clip-path="url(#clipPath362)"
               id="g358">
              <path
                 id="path364"
                 style="fill:#ffffff;fill-opacity:1;fill-rule:nonzero;stroke:none"
                 d="m 1107.46,2951.84 237.555,0 0,286.48 -237.555,0 z" />
            </g>
          </g>
        </g>
        <g
           id="g366">
          <g
             clip-path="url(#clipPath372)"
             id="g368">
            <g
               clip-path="url(#clipPath378)"
               id="g374">
              <path
                 id="path380"
                 style="fill:#ffffff;fill-opacity:1;fill-rule:nonzero;stroke:none"
                 d="m 1895.23,943.215 252.766,0 0,280.262 -252.766,0 z" />
            </g>
          </g>
        </g>
        <g
           id="g382">
          <g
             clip-path="url(#clipPath388)"
             id="g384">
            <g
               clip-path="url(#clipPath394)"
               id="g390">
              <path
                 id="path396"
                 style="fill:#ffffff;fill-opacity:1;fill-rule:nonzero;stroke:none"
                 d="m 2687.13,2182.32 667.23,0 0,1138.88 -667.23,0 z" />
            </g>
          </g>
        </g>
        <g
           id="g398">
          <g
             clip-path="url(#clipPath404)"
             id="g400">
            <g
               clip-path="url(#clipPath410)"
               id="g406">
              <path
                 id="path412"
                 style="fill:#ffffff;fill-opacity:1;fill-rule:nonzero;stroke:none"
                 d="m 1678.61,1393.54 253.754,0 0,279.25 -253.754,0 z" />
            </g>
          </g>
        </g>
        <g
           id="g414">
          <g
             clip-path="url(#clipPath420)"
             id="g416">
            <g
               clip-path="url(#clipPath426)"
               id="g422">
              <path
                 id="path428"
                 style="fill:#ffffff;fill-opacity:1;fill-rule:nonzero;stroke:none"
                 d="m 3369.46,1998.28 523.68,0 0,535.203 -523.68,0 z" />
            </g>
          </g>
        </g>
        <g
           id="g430">
          <g
             clip-path="url(#clipPath436)"
             id="g432">
            <g
               clip-path="url(#clipPath442)"
               id="g438">
              <path
                 id="path444"
                 style="fill:#ffffff;fill-opacity:1;fill-rule:nonzero;stroke:none"
                 d="m 2041.55,147.336 1673.66,0 0,1999.23 -1673.66,0 z" />
            </g>
          </g>
        </g>
        <g
           id="g446">
          <g
             clip-path="url(#clipPath452)"
             id="g448">
            <g
               clip-path="url(#clipPath458)"
               id="g454">
              <path
                 id="path460"
                 style="fill:#ffffff;fill-opacity:1;fill-rule:nonzero;stroke:none"
                 d="m 1525.62,0 785.727,0 0,692.621 -785.727,0 z" />
            </g>
          </g>
        </g>
        <g
           id="g462">
          <g
             clip-path="url(#clipPath468)"
             id="g464">
            <g
               clip-path="url(#clipPath474)"
               id="g470">
              <path
                 id="path476"
                 style="fill:#ffffff;fill-opacity:1;fill-rule:nonzero;stroke:none"
                 d="m 1071.7,0 665.043,0 0,562.281 -665.043,0 z" />
            </g>
          </g>
        </g>
        <g
           id="g478">
          <g
             clip-path="url(#clipPath484)"
             id="g480">
            <g
               clip-path="url(#clipPath490)"
               id="g486">
              <path
                 id="path492"
                 style="fill:#ffffff;fill-opacity:1;fill-rule:nonzero;stroke:none"
                 d="m 1606.34,1542.66 253.758,0 0,279.871 -253.758,0 z" />
            </g>
          </g>
        </g>
        <g
           id="g494">
          <g
             clip-path="url(#clipPath500)"
             id="g496">
            <g
               clip-path="url(#clipPath506)"
               id="g502">
              <path
                 id="path508"
                 style="fill:#ffffff;fill-opacity:1;fill-rule:nonzero;stroke:none"
                 d="m 1211.94,2088.32 513.309,0 0,532.938 -513.309,0 z" />
            </g>
          </g>
        </g>
        <g
           id="g510">
          <g
             clip-path="url(#clipPath516)"
             id="g512">
            <g
               clip-path="url(#clipPath522)"
               id="g518">
              <path
                 id="path524"
                 style="fill:#ffffff;fill-opacity:1;fill-rule:nonzero;stroke:none"
                 d="m 975.086,488.461 1165.12,0 0,1009.89 -1165.12,0 z" />
            </g>
          </g>
        </g>
        <g
           id="g526">
          <g
             clip-path="url(#clipPath532)"
             id="g528">
            <g
               clip-path="url(#clipPath538)"
               id="g534">
              <path
                 id="path540"
                 style="fill:#ffffff;fill-opacity:1;fill-rule:nonzero;stroke:none"
                 d="m 1962.38,790.324 250.926,0 0,281.047 -250.926,0 z" />
            </g>
          </g>
        </g>
        <g
           id="g542">
          <g
             clip-path="url(#clipPath548)"
             id="g544">
            <g
               clip-path="url(#clipPath554)"
               id="g550">
              <path
                 id="path556"
                 style="fill:#ffffff;fill-opacity:1;fill-rule:nonzero;stroke:none"
                 d="m 2022.36,633.906 247.188,0 0,282.508 -247.188,0 z" />
            </g>
          </g>
        </g>
        <g
           id="g558">
          <g
             clip-path="url(#clipPath564)"
             id="g560">
            <g
               clip-path="url(#clipPath570)"
               id="g566">
              <path
                 id="path572"
                 style="fill:#ffffff;fill-opacity:1;fill-rule:nonzero;stroke:none"
                 d="m 1467.74,1844.01 252.137,0 0,280.594 -252.137,0 z" />
            </g>
          </g>
        </g>
        <g
           id="g574">
          <g
             clip-path="url(#clipPath580)"
             id="g576">
            <g
               clip-path="url(#clipPath586)"
               id="g582">
              <path
                 id="path588"
                 style="fill:#ffffff;fill-opacity:1;fill-rule:nonzero;stroke:none"
                 d="m 1413.41,1997.16 240.609,0 0,255.988 -240.609,0 z" />
            </g>
          </g>
        </g>
        <g
           id="g590">
          <g
             clip-path="url(#clipPath596)"
             id="g592">
            <g
               clip-path="url(#clipPath602)"
               id="g598">
              <path
                 id="path604"
                 style="fill:#ffffff;fill-opacity:1;fill-rule:nonzero;stroke:none"
                 d="m 1243.41,2487.34 241.023,0 0,255.898 -241.023,0 z" />
            </g>
          </g>
        </g>
        <g
           id="g606">
          <g
             clip-path="url(#clipPath612)"
             id="g608">
            <g
               clip-path="url(#clipPath618)"
               id="g614">
              <path
                 id="path620"
                 style="fill:#ffffff;fill-opacity:1;fill-rule:nonzero;stroke:none"
                 d="m 1183.04,2620.1 248.473,0 0,283.945 -248.473,0 z" />
            </g>
          </g>
        </g>
        <g
           id="g622">
          <g
             clip-path="url(#clipPath628)"
             id="g624">
            <g
               clip-path="url(#clipPath634)"
               id="g630">
              <path
                 id="path636"
                 style="fill:#ffffff;fill-opacity:1;fill-rule:nonzero;stroke:none"
                 d="m 1535.75,1692.79 253.059,0 0,280.059 -253.059,0 z" />
            </g>
          </g>
        </g>
      </g>
    </g>
  </g>
</svg>
